<?xml version="1.0" encoding="UTF-8" standalone="no"?>
<!-- Created with Inkscape (http://www.inkscape.org/) -->

<svg
   xmlns:dc="http://purl.org/dc/elements/1.1/"
   xmlns:cc="http://creativecommons.org/ns#"
   xmlns:rdf="http://www.w3.org/1999/02/22-rdf-syntax-ns#"
   xmlns:svg="http://www.w3.org/2000/svg"
   xmlns="http://www.w3.org/2000/svg"
   xmlns:sodipodi="http://sodipodi.sourceforge.net/DTD/sodipodi-0.dtd"
   xmlns:inkscape="http://www.inkscape.org/namespaces/inkscape"
   width="744.09448819"
   height="1052.3622047"
   id="svg2"
   version="1.1"
   inkscape:version="0.48.4 r9939"
   sodipodi:docname="geomotry2.svg">
  <defs
     id="defs4" />
  <sodipodi:namedview
     id="base"
     pagecolor="#ffffff"
     bordercolor="#666666"
     borderopacity="1.0"
     inkscape:pageopacity="0.0"
     inkscape:pageshadow="2"
     inkscape:zoom="1.4"
     inkscape:cx="152.45182"
     inkscape:cy="549.44836"
     inkscape:document-units="px"
     inkscape:current-layer="layer1"
     showgrid="false"
     inkscape:window-width="1280"
     inkscape:window-height="750"
     inkscape:window-x="0"
     inkscape:window-y="0"
     inkscape:window-maximized="1" />
  <metadata
     id="metadata7">
    <rdf:RDF>
      <cc:Work
         rdf:about="">
        <dc:format>image/svg+xml</dc:format>
        <dc:type
           rdf:resource="http://purl.org/dc/dcmitype/StillImage" />
        <dc:title></dc:title>
      </cc:Work>
    </rdf:RDF>
  </metadata>
  <g
     inkscape:label="Layer 1"
     inkscape:groupmode="layer"
     id="layer1">
    <path
       style="fill:none;stroke:#000000;stroke-width:1px;stroke-linecap:butt;stroke-linejoin:miter;stroke-opacity:1"
       d="m 314.15744,411.98638 0,85.29698 65.58591,0 0,28.65025 -211.73825,0 0,-28.65025 c 11.11168,0 66.35029,0 66.35029,0 l 0,-85.29698"
       id="path3761"
       inkscape:connector-curvature="0"
       sodipodi:nodetypes="cccccccc" />
    <path
       style="fill:none;stroke:#000000;stroke-width:1px;stroke-linecap:butt;stroke-linejoin:miter;stroke-opacity:1"
       d="m 233.92857,424.68361 c -3.75,1.03562 -9.11905,2.13789 -5.71429,4.28571 4.61193,2.90934 89.35724,2.73167 93.92858,0 4.67768,-2.79522 -8.39286,-5.17857 -8.39286,-5.17857"
       id="path3763"
       inkscape:connector-curvature="0"
       sodipodi:nodetypes="cssc" />
    <path
       sodipodi:nodetypes="cssc"
       inkscape:connector-curvature="0"
       id="path3765"
       d="m 233.92857,428.68361 c -3.75,1.03562 -9.11905,2.13789 -5.71429,4.28571 4.61193,2.90934 89.35724,2.73167 93.92858,0 4.67768,-2.79522 -8.39286,-5.17857 -8.39286,-5.17857"
       style="fill:none;stroke:#000000;stroke-width:1px;stroke-linecap:butt;stroke-linejoin:miter;stroke-opacity:1" />
    <path
       style="fill:none;stroke:#000000;stroke-width:1px;stroke-linecap:butt;stroke-linejoin:miter;stroke-opacity:1"
       d="m 233.92857,432.68361 c -3.75,1.03562 -9.11905,2.13789 -5.71429,4.28571 4.61193,2.90934 89.35724,2.73167 93.92858,0 4.67768,-2.79522 -8.39286,-5.17857 -8.39286,-5.17857"
       id="path3767"
       inkscape:connector-curvature="0"
       sodipodi:nodetypes="cssc" />
    <path
       sodipodi:nodetypes="cssc"
       inkscape:connector-curvature="0"
       id="path3769"
       d="m 233.92857,436.68361 c -3.75,1.03562 -9.11905,2.13789 -5.71429,4.28571 4.61193,2.90934 89.35724,2.73167 93.92858,0 4.67768,-2.79522 -8.39286,-5.17857 -8.39286,-5.17857"
       style="fill:none;stroke:#000000;stroke-width:1px;stroke-linecap:butt;stroke-linejoin:miter;stroke-opacity:1" />
    <path
       style="fill:none;stroke:#000000;stroke-width:1px;stroke-linecap:butt;stroke-linejoin:miter;stroke-opacity:1"
       d="m 233.92857,440.68361 c -3.75,1.03562 -9.11905,2.13789 -5.71429,4.28571 4.61193,2.90934 89.35724,2.73167 93.92858,0 4.67768,-2.79522 -8.39286,-5.17857 -8.39286,-5.17857"
       id="path3771"
       inkscape:connector-curvature="0"
       sodipodi:nodetypes="cssc" />
    <path
       sodipodi:nodetypes="cssc"
       inkscape:connector-curvature="0"
       id="path3773"
       d="m 233.92857,444.68361 c -3.75,1.03562 -9.11905,2.13789 -5.71429,4.28571 4.61193,2.90934 89.35724,2.73167 93.92858,0 4.67768,-2.79522 -8.39286,-5.17857 -8.39286,-5.17857"
       style="fill:none;stroke:#000000;stroke-width:1px;stroke-linecap:butt;stroke-linejoin:miter;stroke-opacity:1" />
    <path
       style="fill:none;stroke:#000000;stroke-width:1px;stroke-linecap:butt;stroke-linejoin:miter;stroke-opacity:1"
       d="m 233.92857,448.68361 c -3.75,1.03562 -9.11905,2.13789 -5.71429,4.28571 4.61193,2.90934 89.35724,2.73167 93.92858,0 4.67768,-2.79522 -8.39286,-5.17857 -8.39286,-5.17857"
       id="path3775"
       inkscape:connector-curvature="0"
       sodipodi:nodetypes="cssc" />
    <path
       sodipodi:nodetypes="cssc"
       inkscape:connector-curvature="0"
       id="path3777"
       d="m 233.92857,452.68361 c -3.75,1.03562 -9.11905,2.13789 -5.71429,4.28571 4.61193,2.90934 89.35724,2.73167 93.92858,0 4.67768,-2.79522 -8.39286,-5.17857 -8.39286,-5.17857"
       style="fill:none;stroke:#000000;stroke-width:1px;stroke-linecap:butt;stroke-linejoin:miter;stroke-opacity:1" />
    <path
       style="fill:none;stroke:#000000;stroke-width:1px;stroke-linecap:butt;stroke-linejoin:miter;stroke-opacity:1"
       d="m 233.92857,456.68361 c -3.75,1.03562 -9.11905,2.13789 -5.71429,4.28571 4.61193,2.90934 89.35724,2.73167 93.92858,0 4.67768,-2.79522 -8.39286,-5.17857 -8.39286,-5.17857"
       id="path3779"
       inkscape:connector-curvature="0"
       sodipodi:nodetypes="cssc" />
    <path
       sodipodi:nodetypes="cssc"
       inkscape:connector-curvature="0"
       id="path3781"
       d="m 233.92857,460.68361 c -3.75,1.03562 -9.11905,2.13789 -5.71429,4.28571 4.61193,2.90934 89.35724,2.73167 93.92858,0 4.67768,-2.79522 -8.39286,-5.17857 -8.39286,-5.17857"
       style="fill:none;stroke:#000000;stroke-width:1px;stroke-linecap:butt;stroke-linejoin:miter;stroke-opacity:1" />
    <path
       style="fill:none;stroke:#000000;stroke-width:1px;stroke-linecap:butt;stroke-linejoin:miter;stroke-opacity:1"
       d="m 233.92857,464.68361 c -3.75,1.03562 -9.11905,2.13789 -5.71429,4.28571 4.61193,2.90934 89.35724,2.73167 93.92858,0 4.67768,-2.79522 -8.39286,-5.17857 -8.39286,-5.17857"
       id="path3783"
       inkscape:connector-curvature="0"
       sodipodi:nodetypes="cssc" />
    <path
       sodipodi:nodetypes="cssc"
       inkscape:connector-curvature="0"
       id="path3785"
       d="m 233.92857,468.68361 c -3.75,1.03562 -9.11905,2.13789 -5.71429,4.28571 4.61193,2.90934 89.35724,2.73167 93.92858,0 4.67768,-2.79522 -8.39286,-5.17857 -8.39286,-5.17857"
       style="fill:none;stroke:#000000;stroke-width:1px;stroke-linecap:butt;stroke-linejoin:miter;stroke-opacity:1" />
    <path
       style="fill:none;stroke:#000000;stroke-width:1px;stroke-linecap:butt;stroke-linejoin:miter;stroke-opacity:1"
       d="m 233.92857,472.68361 c -3.75,1.03562 -9.11905,2.13789 -5.71429,4.28571 4.61193,2.90934 89.35724,2.73167 93.92858,0 4.67768,-2.79522 -8.39286,-5.17857 -8.39286,-5.17857"
       id="path3787"
       inkscape:connector-curvature="0"
       sodipodi:nodetypes="cssc" />
    <path
       sodipodi:nodetypes="cssc"
       inkscape:connector-curvature="0"
       id="path3789"
       d="m 233.92857,476.68361 c -3.75,1.03562 -9.11905,2.13789 -5.71429,4.28571 4.61193,2.90934 89.35724,2.73167 93.92858,0 4.67768,-2.79522 -8.39286,-5.17857 -8.39286,-5.17857"
       style="fill:none;stroke:#000000;stroke-width:1px;stroke-linecap:butt;stroke-linejoin:miter;stroke-opacity:1" />
    <path
       style="fill:none;stroke:#000000;stroke-width:1px;stroke-linecap:butt;stroke-linejoin:miter;stroke-opacity:1"
       d="m 233.92857,480.68361 c -3.75,1.03562 -9.11905,2.13789 -5.71429,4.28571 4.61193,2.90934 89.35724,2.73167 93.92858,0 4.67768,-2.79522 -8.39286,-5.17857 -8.39286,-5.17857"
       id="path3791"
       inkscape:connector-curvature="0"
       sodipodi:nodetypes="cssc" />
    <path
       sodipodi:nodetypes="cssc"
       inkscape:connector-curvature="0"
       id="path3793"
       d="m 233.92857,484.68361 c -3.75,1.03562 -9.11905,2.13789 -5.71429,4.28571 4.61193,2.90934 89.35724,2.73167 93.92858,0 4.67768,-2.79522 -8.39286,-5.17857 -8.39286,-5.17857"
       style="fill:none;stroke:#000000;stroke-width:1px;stroke-linecap:butt;stroke-linejoin:miter;stroke-opacity:1" />
    <path
       style="fill:none;stroke:#000000;stroke-width:1px;stroke-linecap:butt;stroke-linejoin:miter;stroke-opacity:1"
       d="m 233.92857,488.68361 c -3.75,1.03562 -9.11905,2.13789 -5.71429,4.28571 4.61193,2.90934 89.35724,2.73167 93.92858,0 4.67768,-2.79522 -8.39286,-5.17857 -8.39286,-5.17857"
       id="path3795"
       inkscape:connector-curvature="0"
       sodipodi:nodetypes="cssc" />
    <path
       sodipodi:nodetypes="cssc"
       inkscape:connector-curvature="0"
       id="path3797"
       d="m 326.24442,526.43649 c 1.08948,1.37283 2.24908,3.33836 4.50862,2.09192 3.06067,-1.68836 2.87375,-32.71264 0,-34.38616 -2.94061,-1.71243 -5.44793,3.07254 -5.44793,3.07254"
       style="fill:none;stroke:#000000;stroke-width:0.62058836px;stroke-linecap:butt;stroke-linejoin:miter;stroke-opacity:1" />
    <path
       style="fill:none;stroke:#000000;stroke-width:0.62058836px;stroke-linecap:butt;stroke-linejoin:miter;stroke-opacity:1"
       d="m 330.24442,526.43649 c 1.08948,1.37283 2.24908,3.33836 4.50862,2.09192 3.06067,-1.68836 2.87375,-32.71264 0,-34.38616 -2.94061,-1.71243 -5.44793,3.07254 -5.44793,3.07254"
       id="path3799"
       inkscape:connector-curvature="0"
       sodipodi:nodetypes="cssc" />
    <path
       sodipodi:nodetypes="cssc"
       inkscape:connector-curvature="0"
       id="path3801"
       d="m 334.24442,526.43649 c 1.08948,1.37283 2.24908,3.33836 4.50862,2.09192 3.06067,-1.68836 2.87375,-32.71264 0,-34.38616 -2.94061,-1.71243 -5.44793,3.07254 -5.44793,3.07254"
       style="fill:none;stroke:#000000;stroke-width:0.62058836px;stroke-linecap:butt;stroke-linejoin:miter;stroke-opacity:1" />
    <path
       style="fill:none;stroke:#000000;stroke-width:0.62058836px;stroke-linecap:butt;stroke-linejoin:miter;stroke-opacity:1"
       d="m 338.24442,526.43649 c 1.08948,1.37283 2.24908,3.33836 4.50862,2.09192 3.06067,-1.68836 2.87375,-32.71264 0,-34.38616 -2.94061,-1.71243 -5.44793,3.07254 -5.44793,3.07254"
       id="path3803"
       inkscape:connector-curvature="0"
       sodipodi:nodetypes="cssc" />
    <path
       sodipodi:nodetypes="cssc"
       inkscape:connector-curvature="0"
       id="path3805"
       d="m 342.24442,526.43649 c 1.08948,1.37283 2.24908,3.33836 4.50862,2.09192 3.06067,-1.68836 2.87375,-32.71264 0,-34.38616 -2.94061,-1.71243 -5.44793,3.07254 -5.44793,3.07254"
       style="fill:none;stroke:#000000;stroke-width:0.62058836px;stroke-linecap:butt;stroke-linejoin:miter;stroke-opacity:1" />
    <path
       style="fill:none;stroke:#000000;stroke-width:0.62058836px;stroke-linecap:butt;stroke-linejoin:miter;stroke-opacity:1"
       d="m 346.24442,526.43649 c 1.08948,1.37283 2.24908,3.33836 4.50862,2.09192 3.06067,-1.68836 2.87375,-32.71264 0,-34.38616 -2.94061,-1.71243 -5.44793,3.07254 -5.44793,3.07254"
       id="path3807"
       inkscape:connector-curvature="0"
       sodipodi:nodetypes="cssc" />
    <path
       sodipodi:nodetypes="cssc"
       inkscape:connector-curvature="0"
       id="path3809"
       d="m 350.24442,526.43649 c 1.08948,1.37283 2.24908,3.33836 4.50862,2.09192 3.06067,-1.68836 2.87375,-32.71264 0,-34.38616 -2.94061,-1.71243 -5.44793,3.07254 -5.44793,3.07254"
       style="fill:none;stroke:#000000;stroke-width:0.62058836px;stroke-linecap:butt;stroke-linejoin:miter;stroke-opacity:1" />
    <path
       style="fill:none;stroke:#000000;stroke-width:0.62058836px;stroke-linecap:butt;stroke-linejoin:miter;stroke-opacity:1"
       d="m 354.24442,526.43649 c 1.08948,1.37283 2.24908,3.33836 4.50862,2.09192 3.06067,-1.68836 2.87375,-32.71264 0,-34.38616 -2.94061,-1.71243 -5.44793,3.07254 -5.44793,3.07254"
       id="path3811"
       inkscape:connector-curvature="0"
       sodipodi:nodetypes="cssc" />
    <path
       sodipodi:nodetypes="cssc"
       inkscape:connector-curvature="0"
       id="path3813"
       d="m 358.24442,526.43649 c 1.08948,1.37283 2.24908,3.33836 4.50862,2.09192 3.06067,-1.68836 2.87375,-32.71264 0,-34.38616 -2.94061,-1.71243 -5.44793,3.07254 -5.44793,3.07254"
       style="fill:none;stroke:#000000;stroke-width:0.62058836px;stroke-linecap:butt;stroke-linejoin:miter;stroke-opacity:1" />
    <path
       style="fill:none;stroke:#000000;stroke-width:0.62058836px;stroke-linecap:butt;stroke-linejoin:miter;stroke-opacity:1"
       d="m 188.24442,526.43649 c 1.08948,1.37283 2.24908,3.33836 4.50862,2.09192 3.06067,-1.68836 2.87375,-32.71264 0,-34.38616 -2.94061,-1.71243 -5.44793,3.07254 -5.44793,3.07254"
       id="path3815"
       inkscape:connector-curvature="0"
       sodipodi:nodetypes="cssc" />
    <path
       sodipodi:nodetypes="cssc"
       inkscape:connector-curvature="0"
       id="path3817"
       d="m 192.24442,526.43649 c 1.08948,1.37283 2.24908,3.33836 4.50862,2.09192 3.06067,-1.68836 2.87375,-32.71264 0,-34.38616 -2.94061,-1.71243 -5.44793,3.07254 -5.44793,3.07254"
       style="fill:none;stroke:#000000;stroke-width:0.62058836px;stroke-linecap:butt;stroke-linejoin:miter;stroke-opacity:1" />
    <path
       style="fill:none;stroke:#000000;stroke-width:0.62058836px;stroke-linecap:butt;stroke-linejoin:miter;stroke-opacity:1"
       d="m 196.24442,526.43649 c 1.08948,1.37283 2.24908,3.33836 4.50862,2.09192 3.06067,-1.68836 2.87375,-32.71264 0,-34.38616 -2.94061,-1.71243 -5.44793,3.07254 -5.44793,3.07254"
       id="path3819"
       inkscape:connector-curvature="0"
       sodipodi:nodetypes="cssc" />
    <path
       sodipodi:nodetypes="cssc"
       inkscape:connector-curvature="0"
       id="path3821"
       d="m 200.24442,526.43649 c 1.08948,1.37283 2.24908,3.33836 4.50862,2.09192 3.06067,-1.68836 2.87375,-32.71264 0,-34.38616 -2.94061,-1.71243 -5.44793,3.07254 -5.44793,3.07254"
       style="fill:none;stroke:#000000;stroke-width:0.62058836px;stroke-linecap:butt;stroke-linejoin:miter;stroke-opacity:1" />
    <path
       style="fill:none;stroke:#000000;stroke-width:0.62058836px;stroke-linecap:butt;stroke-linejoin:miter;stroke-opacity:1"
       d="m 204.24442,526.43649 c 1.08948,1.37283 2.24908,3.33836 4.50862,2.09192 3.06067,-1.68836 2.87375,-32.71264 0,-34.38616 -2.94061,-1.71243 -5.44793,3.07254 -5.44793,3.07254"
       id="path3823"
       inkscape:connector-curvature="0"
       sodipodi:nodetypes="cssc" />
    <path
       sodipodi:nodetypes="cssc"
       inkscape:connector-curvature="0"
       id="path3825"
       d="m 208.24442,526.43649 c 1.08948,1.37283 2.24908,3.33836 4.50862,2.09192 3.06067,-1.68836 2.87375,-32.71264 0,-34.38616 -2.94061,-1.71243 -5.44793,3.07254 -5.44793,3.07254"
       style="fill:none;stroke:#000000;stroke-width:0.62058836px;stroke-linecap:butt;stroke-linejoin:miter;stroke-opacity:1" />
    <path
       style="fill:none;stroke:#000000;stroke-width:0.62058836px;stroke-linecap:butt;stroke-linejoin:miter;stroke-opacity:1"
       d="m 212.24442,526.43649 c 1.08948,1.37283 2.24908,3.33836 4.50862,2.09192 3.06067,-1.68836 2.87375,-32.71264 0,-34.38616 -2.94061,-1.71243 -5.44793,3.07254 -5.44793,3.07254"
       id="path3827"
       inkscape:connector-curvature="0"
       sodipodi:nodetypes="cssc" />
    <path
       sodipodi:nodetypes="cssc"
       inkscape:connector-curvature="0"
       id="path3829"
       d="m 216.24442,526.43649 c 1.08948,1.37283 2.24908,3.33836 4.50862,2.09192 3.06067,-1.68836 2.87375,-32.71264 0,-34.38616 -2.94061,-1.71243 -5.44793,3.07254 -5.44793,3.07254"
       style="fill:none;stroke:#000000;stroke-width:0.62058836px;stroke-linecap:butt;stroke-linejoin:miter;stroke-opacity:1" />
    <path
       style="fill:none;stroke:#000000;stroke-width:0.62058836px;stroke-linecap:butt;stroke-linejoin:miter;stroke-opacity:1"
       d="m 220.24442,526.43649 c 1.08948,1.37283 2.24908,3.33836 4.50862,2.09192 3.06067,-1.68836 2.87375,-32.71264 0,-34.38616 -2.94061,-1.71243 -5.44793,3.07254 -5.44793,3.07254"
       id="path3831"
       inkscape:connector-curvature="0"
       sodipodi:nodetypes="cssc" />
    <path
       style="fill:none;stroke:#000000;stroke-width:1px;stroke-linecap:butt;stroke-linejoin:miter;stroke-opacity:1"
       d="M 238.715,417.28296 199.28571,367.36218"
       id="path3833"
       inkscape:connector-curvature="0"
       sodipodi:nodetypes="cc" />
    <path
       style="fill:none;stroke:#000000;stroke-width:1px;stroke-linecap:butt;stroke-linejoin:miter;stroke-opacity:1"
       d="m 322.85714,455.93361 39.28572,-52.85714"
       id="path3835"
       inkscape:connector-curvature="0" />
    <rect
       style="fill:none;stroke:#1f2f3f;stroke-width:2;stroke-miterlimit:4;stroke-opacity:1;stroke-dasharray:none"
       id="rect3837"
       width="298.57144"
       height="24.285715"
       x="128.57143"
       y="533.07648" />
    <flowRoot
       xml:space="preserve"
       id="flowRoot3839"
       style="font-size:14px;font-style:normal;font-weight:normal;line-height:125%;letter-spacing:0px;word-spacing:0px;fill:#000000;fill-opacity:1;stroke:none;font-family:Sans"
       transform="translate(66.428571,49.285714)"><flowRegion
         id="flowRegion3841"><rect
           id="rect3843"
           width="175"
           height="71.428574"
           x="80.714287"
           y="298.79074" /></flowRegion><flowPara
         id="flowPara3847">Ferrite Core</flowPara></flowRoot>    <flowRoot
       xml:space="preserve"
       id="flowRoot3851"
       style="font-size:14px;font-style:normal;font-weight:normal;line-height:125%;letter-spacing:0px;word-spacing:0px;fill:#000000;fill-opacity:1;stroke:none;font-family:Sans"
       transform="translate(-17.857143,19.285714)"><flowRegion
         id="flowRegion3853"><rect
           id="rect3855"
           width="157.14285"
           height="60"
           x="343.57144"
           y="361.64789" /></flowRegion><flowPara
         id="flowPara3857">Copper coil</flowPara></flowRoot>    <flowRoot
       xml:space="preserve"
       id="flowRoot3859"
       style="font-size:14px;font-style:normal;font-weight:normal;line-height:125%;letter-spacing:0px;word-spacing:0px;fill:#000000;fill-opacity:1;stroke:none;font-family:Sans"
       transform="translate(-20,18.571429)"><flowRegion
         id="flowRegion3861"><rect
           id="rect3863"
           width="151.42856"
           height="44.285706"
           x="28.571428"
           y="467.36218" /></flowRegion><flowPara
         id="flowPara3865">Conductive Material</flowPara></flowRoot>    <path
       style="fill:none;stroke:#000000;stroke-width:1px;stroke-linecap:butt;stroke-linejoin:miter;stroke-opacity:1"
       d="m 98.571429,508.07647 37.142861,32.14285"
       id="path3867"
       inkscape:connector-curvature="0" />
    <path
       sodipodi:type="arc"
       style="fill:none;stroke:#000001;stroke-width:1;stroke-miterlimit:4;stroke-opacity:1;stroke-dasharray:none"
       id="path3888"
       sodipodi:cx="274.64285"
       sodipodi:cy="415.57648"
       sodipodi:rx="39.642857"
       sodipodi:ry="3.5714285"
       d="m 314.28571,415.57648 a 39.642857,3.5714285 0 1 1 -79.28571,0 39.642857,3.5714285 0 1 1 79.28571,0 z"
       transform="matrix(1.0063331,0,0,0.99958643,-2.2241045,-3.3230534)" />
  </g>
</svg>
