<?xml version="1.0" encoding="UTF-8" standalone="no"?>
<!-- Created with Inkscape (http://www.inkscape.org/) -->

<svg
   xmlns:dc="http://purl.org/dc/elements/1.1/"
   xmlns:cc="http://creativecommons.org/ns#"
   xmlns:rdf="http://www.w3.org/1999/02/22-rdf-syntax-ns#"
   xmlns:svg="http://www.w3.org/2000/svg"
   xmlns="http://www.w3.org/2000/svg"
   xmlns:sodipodi="http://sodipodi.sourceforge.net/DTD/sodipodi-0.dtd"
   xmlns:inkscape="http://www.inkscape.org/namespaces/inkscape"
   width="744.09448819"
   height="1052.3622047"
   id="svg3951"
   version="1.1"
   inkscape:version="0.48.4 r9939"
   sodipodi:docname="New document 7">
  <defs
     id="defs3953" />
  <sodipodi:namedview
     id="base"
     pagecolor="#ffffff"
     bordercolor="#666666"
     borderopacity="1.0"
     inkscape:pageopacity="0.0"
     inkscape:pageshadow="2"
     inkscape:zoom="0.98994949"
     inkscape:cx="446.1135"
     inkscape:cy="430.14704"
     inkscape:document-units="px"
     inkscape:current-layer="layer1"
     showgrid="false"
     inkscape:window-width="1280"
     inkscape:window-height="750"
     inkscape:window-x="0"
     inkscape:window-y="0"
     inkscape:window-maximized="1" />
  <metadata
     id="metadata3956">
    <rdf:RDF>
      <cc:Work
         rdf:about="">
        <dc:format>image/svg+xml</dc:format>
        <dc:type
           rdf:resource="http://purl.org/dc/dcmitype/StillImage" />
        <dc:title></dc:title>
      </cc:Work>
    </rdf:RDF>
  </metadata>
  <g
     inkscape:label="Layer 1"
     inkscape:groupmode="layer"
     id="layer1">
    <path
       style="fill:none;stroke:#000000;stroke-width:1px;stroke-linecap:butt;stroke-linejoin:miter;stroke-opacity:1"
       d="M 219.97946,495.55327 180.55017,445.63249"
       id="path3833"
       inkscape:connector-curvature="0"
       sodipodi:nodetypes="cc" />
    <path
       style="fill:none;stroke:#000000;stroke-width:1px;stroke-linecap:butt;stroke-linejoin:miter;stroke-opacity:1"
       d="m 304.1216,534.20393 39.28572,-52.85715"
       id="path3835"
       inkscape:connector-curvature="0" />
    <rect
       style="fill:none;stroke:#1f2f3f;stroke-width:2;stroke-miterlimit:4;stroke-opacity:1;stroke-dasharray:none"
       id="rect3837"
       width="298.57144"
       height="24.285715"
       x="109.83588"
       y="611.3468" />
    <flowRoot
       xml:space="preserve"
       id="flowRoot3839"
       style="font-size:14px;font-style:normal;font-weight:normal;line-height:125%;letter-spacing:0px;word-spacing:0px;fill:#000000;fill-opacity:1;stroke:none;font-family:Sans"
       transform="translate(47.693024,127.55603)"><flowRegion
         id="flowRegion3841"><rect
           id="rect3843"
           width="175"
           height="71.428574"
           x="80.714287"
           y="298.79074" /></flowRegion><flowPara
         id="flowPara3847">Ferrite Core</flowPara></flowRoot>    <flowRoot
       xml:space="preserve"
       id="flowRoot3851"
       style="font-size:14px;font-style:normal;font-weight:normal;line-height:125%;letter-spacing:0px;word-spacing:0px;fill:#000000;fill-opacity:1;stroke:none;font-family:Sans"
       transform="translate(-36.59269,97.556026)"><flowRegion
         id="flowRegion3853"><rect
           id="rect3855"
           width="157.14285"
           height="60"
           x="343.57144"
           y="361.64789" /></flowRegion><flowPara
         id="flowPara3857">Copper coil</flowPara></flowRoot>    <flowRoot
       xml:space="preserve"
       id="flowRoot3859"
       style="font-size:14px;font-style:normal;font-weight:normal;line-height:125%;letter-spacing:0px;word-spacing:0px;fill:#000000;fill-opacity:1;stroke:none;font-family:Sans"
       transform="translate(-38.735547,96.841746)"><flowRegion
         id="flowRegion3861"><rect
           id="rect3863"
           width="151.42856"
           height="44.285706"
           x="28.571428"
           y="467.36218" /></flowRegion><flowPara
         id="flowPara3865">Conductive Material</flowPara></flowRoot>    <path
       style="fill:none;stroke:#000000;stroke-width:1px;stroke-linecap:butt;stroke-linejoin:miter;stroke-opacity:1"
       d="m 79.835882,586.34679 37.142868,32.14285"
       id="path3867"
       inkscape:connector-curvature="0" />
    <g
       id="g4133"
       transform="matrix(-1,0,0,-1,510.27737,1090.9844)">
      <path
         sodipodi:nodetypes="cccccccc"
         inkscape:connector-curvature="0"
         id="path3761"
         d="m 295.4219,490.25669 0,85.29699 65.58591,0 0,28.65025 -211.73825,0 0,-28.65025 c 11.11168,0 66.35029,0 66.35029,0 l 0,-85.29699"
         style="fill:none;stroke:#000000;stroke-width:1px;stroke-linecap:butt;stroke-linejoin:miter;stroke-opacity:1" />
      <path
         sodipodi:nodetypes="cssc"
         inkscape:connector-curvature="0"
         id="path3763"
         d="m 215.19303,502.95392 c -3.75,1.03562 -9.11905,2.13789 -5.71429,4.28571 4.61193,2.90934 89.35724,2.73167 93.92858,0 4.67768,-2.79522 -8.39286,-5.17857 -8.39286,-5.17857"
         style="fill:none;stroke:#000000;stroke-width:1px;stroke-linecap:butt;stroke-linejoin:miter;stroke-opacity:1" />
      <path
         style="fill:none;stroke:#000000;stroke-width:1px;stroke-linecap:butt;stroke-linejoin:miter;stroke-opacity:1"
         d="m 215.19303,506.95392 c -3.75,1.03562 -9.11905,2.13789 -5.71429,4.28571 4.61193,2.90934 89.35724,2.73167 93.92858,0 4.67768,-2.79522 -8.39286,-5.17857 -8.39286,-5.17857"
         id="path3765"
         inkscape:connector-curvature="0"
         sodipodi:nodetypes="cssc" />
      <path
         sodipodi:nodetypes="cssc"
         inkscape:connector-curvature="0"
         id="path3767"
         d="m 215.19303,510.95392 c -3.75,1.03562 -9.11905,2.13789 -5.71429,4.28571 4.61193,2.90934 89.35724,2.73167 93.92858,0 4.67768,-2.79522 -8.39286,-5.17857 -8.39286,-5.17857"
         style="fill:none;stroke:#000000;stroke-width:1px;stroke-linecap:butt;stroke-linejoin:miter;stroke-opacity:1" />
      <path
         style="fill:none;stroke:#000000;stroke-width:1px;stroke-linecap:butt;stroke-linejoin:miter;stroke-opacity:1"
         d="m 215.19303,514.95392 c -3.75,1.03562 -9.11905,2.13789 -5.71429,4.28571 4.61193,2.90934 89.35724,2.73167 93.92858,0 4.67768,-2.79522 -8.39286,-5.17857 -8.39286,-5.17857"
         id="path3769"
         inkscape:connector-curvature="0"
         sodipodi:nodetypes="cssc" />
      <path
         sodipodi:nodetypes="cssc"
         inkscape:connector-curvature="0"
         id="path3771"
         d="m 215.19303,518.95392 c -3.75,1.03562 -9.11905,2.13789 -5.71429,4.28571 4.61193,2.90934 89.35724,2.73167 93.92858,0 4.67768,-2.79522 -8.39286,-5.17857 -8.39286,-5.17857"
         style="fill:none;stroke:#000000;stroke-width:1px;stroke-linecap:butt;stroke-linejoin:miter;stroke-opacity:1" />
      <path
         style="fill:none;stroke:#000000;stroke-width:1px;stroke-linecap:butt;stroke-linejoin:miter;stroke-opacity:1"
         d="m 215.19303,522.95392 c -3.75,1.03562 -9.11905,2.13789 -5.71429,4.28571 4.61193,2.90935 89.35724,2.73168 93.92858,0 4.67768,-2.79522 -8.39286,-5.17857 -8.39286,-5.17857"
         id="path3773"
         inkscape:connector-curvature="0"
         sodipodi:nodetypes="cssc" />
      <path
         sodipodi:nodetypes="cssc"
         inkscape:connector-curvature="0"
         id="path3775"
         d="m 215.19303,526.95392 c -3.75,1.03562 -9.11905,2.13789 -5.71429,4.28572 4.61193,2.90934 89.35724,2.73167 93.92858,0 4.67768,-2.79523 -8.39286,-5.17858 -8.39286,-5.17858"
         style="fill:none;stroke:#000000;stroke-width:1px;stroke-linecap:butt;stroke-linejoin:miter;stroke-opacity:1" />
      <path
         style="fill:none;stroke:#000000;stroke-width:1px;stroke-linecap:butt;stroke-linejoin:miter;stroke-opacity:1"
         d="m 215.19303,530.95393 c -3.75,1.03562 -9.11905,2.13789 -5.71429,4.28571 4.61193,2.90934 89.35724,2.73167 93.92858,0 4.67768,-2.79522 -8.39286,-5.17857 -8.39286,-5.17857"
         id="path3777"
         inkscape:connector-curvature="0"
         sodipodi:nodetypes="cssc" />
      <path
         sodipodi:nodetypes="cssc"
         inkscape:connector-curvature="0"
         id="path3779"
         d="m 215.19303,534.95393 c -3.75,1.03562 -9.11905,2.13789 -5.71429,4.28571 4.61193,2.90934 89.35724,2.73167 93.92858,0 4.67768,-2.79522 -8.39286,-5.17857 -8.39286,-5.17857"
         style="fill:none;stroke:#000000;stroke-width:1px;stroke-linecap:butt;stroke-linejoin:miter;stroke-opacity:1" />
      <path
         style="fill:none;stroke:#000000;stroke-width:1px;stroke-linecap:butt;stroke-linejoin:miter;stroke-opacity:1"
         d="m 215.19303,538.95393 c -3.75,1.03562 -9.11905,2.13789 -5.71429,4.28571 4.61193,2.90934 89.35724,2.73167 93.92858,0 4.67768,-2.79522 -8.39286,-5.17857 -8.39286,-5.17857"
         id="path3781"
         inkscape:connector-curvature="0"
         sodipodi:nodetypes="cssc" />
      <path
         sodipodi:nodetypes="cssc"
         inkscape:connector-curvature="0"
         id="path3783"
         d="m 215.19303,542.95393 c -3.75,1.03562 -9.11905,2.13789 -5.71429,4.28571 4.61193,2.90934 89.35724,2.73167 93.92858,0 4.67768,-2.79522 -8.39286,-5.17857 -8.39286,-5.17857"
         style="fill:none;stroke:#000000;stroke-width:1px;stroke-linecap:butt;stroke-linejoin:miter;stroke-opacity:1" />
      <path
         style="fill:none;stroke:#000000;stroke-width:1px;stroke-linecap:butt;stroke-linejoin:miter;stroke-opacity:1"
         d="m 215.19303,546.95393 c -3.75,1.03562 -9.11905,2.13789 -5.71429,4.28571 4.61193,2.90934 89.35724,2.73167 93.92858,0 4.67768,-2.79522 -8.39286,-5.17857 -8.39286,-5.17857"
         id="path3785"
         inkscape:connector-curvature="0"
         sodipodi:nodetypes="cssc" />
      <path
         sodipodi:nodetypes="cssc"
         inkscape:connector-curvature="0"
         id="path3787"
         d="m 215.19303,550.95393 c -3.75,1.03562 -9.11905,2.13789 -5.71429,4.28571 4.61193,2.90934 89.35724,2.73167 93.92858,0 4.67768,-2.79522 -8.39286,-5.17857 -8.39286,-5.17857"
         style="fill:none;stroke:#000000;stroke-width:1px;stroke-linecap:butt;stroke-linejoin:miter;stroke-opacity:1" />
      <path
         style="fill:none;stroke:#000000;stroke-width:1px;stroke-linecap:butt;stroke-linejoin:miter;stroke-opacity:1"
         d="m 215.19303,554.95393 c -3.75,1.03562 -9.11905,2.13789 -5.71429,4.28571 4.61193,2.90934 89.35724,2.73167 93.92858,0 4.67768,-2.79522 -8.39286,-5.17857 -8.39286,-5.17857"
         id="path3789"
         inkscape:connector-curvature="0"
         sodipodi:nodetypes="cssc" />
      <path
         sodipodi:nodetypes="cssc"
         inkscape:connector-curvature="0"
         id="path3791"
         d="m 215.19303,558.95393 c -3.75,1.03562 -9.11905,2.13789 -5.71429,4.28571 4.61193,2.90934 89.35724,2.73167 93.92858,0 4.67768,-2.79522 -8.39286,-5.17857 -8.39286,-5.17857"
         style="fill:none;stroke:#000000;stroke-width:1px;stroke-linecap:butt;stroke-linejoin:miter;stroke-opacity:1" />
      <path
         style="fill:none;stroke:#000000;stroke-width:1px;stroke-linecap:butt;stroke-linejoin:miter;stroke-opacity:1"
         d="m 215.19303,562.95393 c -3.75,1.03562 -9.11905,2.13789 -5.71429,4.28571 4.61193,2.90934 89.35724,2.73167 93.92858,0 4.67768,-2.79522 -8.39286,-5.17857 -8.39286,-5.17857"
         id="path3793"
         inkscape:connector-curvature="0"
         sodipodi:nodetypes="cssc" />
      <path
         sodipodi:nodetypes="cssc"
         inkscape:connector-curvature="0"
         id="path3795"
         d="m 215.19303,566.95393 c -3.75,1.03562 -9.11905,2.13789 -5.71429,4.28571 4.61193,2.90934 89.35724,2.73167 93.92858,0 4.67768,-2.79522 -8.39286,-5.17857 -8.39286,-5.17857"
         style="fill:none;stroke:#000000;stroke-width:1px;stroke-linecap:butt;stroke-linejoin:miter;stroke-opacity:1" />
      <path
         transform="matrix(1.0063331,0,0,0.99958643,-20.959651,74.947256)"
         d="m 314.28571,415.57648 c 0,1.97244 -17.74871,3.57143 -39.64286,3.57143 -21.89414,0 -39.64285,-1.59899 -39.64285,-3.57143 0,-1.97245 17.74871,-3.57143 39.64285,-3.57143 21.89415,0 39.64286,1.59898 39.64286,3.57143 z"
         sodipodi:ry="3.5714285"
         sodipodi:rx="39.642857"
         sodipodi:cy="415.57648"
         sodipodi:cx="274.64285"
         id="path3888"
         style="fill:none;stroke:#000001;stroke-width:1;stroke-miterlimit:4;stroke-opacity:1;stroke-dasharray:none"
         sodipodi:type="arc" />
    </g>
  </g>
</svg>
